<svg version="1.1" xmlns="http://www.w3.org/2000/svg" viewBox="0 0 100 100"><path d="M7.55,16.44L7.2,39.99v49.32c0,0.58,0.23,1.09,0.61,1.48c0.39,0.39,0.9,0.61,1.48,0.61h86.12 c0.58,0,1.09-0.23,1.48-0.61c0.39-0.39,0.61-0.9,0.61-1.48l6.89,0.01v1.65c0,4.16-3.4,7.55-7.55,7.55H7.55 C3.4,98.53,0,95.13,0,90.97V23.99C0,19.84,3.4,16.44,7.55,16.44L7.55,16.44z M26.04,0h89.29c4.16,0,7.55,3.4,7.55,7.55v66.98 c0,4.15-3.4,7.55-7.55,7.55H26.04c-4.15,0-7.55-3.4-7.55-7.55V7.55C18.48,3.4,21.88,0,26.04,0L26.04,0z M116.02,23.55H25.68v49.32 c0,0.58,0.23,1.09,0.61,1.48c0.39,0.39,0.9,0.61,1.48,0.61h86.12c0.58,0,1.09-0.23,1.48-0.61c0.39-0.39,0.61-0.9,0.61-1.48V23.55 H116.02L116.02,23.55z M108.14,8.49c2.06,0,3.73,1.67,3.73,3.73c0,2.06-1.67,3.73-3.73,3.73c-2.06,0-3.73-1.67-3.73-3.73 C104.4,10.16,106.07,8.49,108.14,8.49L108.14,8.49z M82.85,8.49c2.06,0,3.73,1.67,3.73,3.73c0,2.06-1.67,3.73-3.73,3.73 c-2.06,0-3.73-1.67-3.73-3.73C79.11,10.16,80.78,8.49,82.85,8.49L82.85,8.49z M95.49,8.49c2.06,0,3.73,1.67,3.73,3.73 c0,2.06-1.67,3.73-3.73,3.73c-2.06,0-3.73-1.67-3.73-3.73C91.76,10.16,93.43,8.49,95.49,8.49L95.49,8.49z"/></svg>






